<mxfile host="app.diagrams.net" agent="Mozilla/5.0 (Windows NT 10.0; Win64; x64) AppleWebKit/537.36 (KHTML, like Gecko) Chrome/136.0.0.0 Safari/537.36 Edg/136.0.0.0" version="26.2.14">
  <diagram name="Страница — 1" id="2CosSSrfe7D99ffmcuYE">
    <mxGraphModel dx="3638" dy="2744" grid="1" gridSize="10" guides="1" tooltips="1" connect="1" arrows="1" fold="1" page="1" pageScale="1" pageWidth="827" pageHeight="1169" math="0" shadow="0">
      <root>
        <mxCell id="0" />
        <mxCell id="1" parent="0" />
        <mxCell id="ktNSDYZ1efkuu9V3wboI-3" style="edgeStyle=orthogonalEdgeStyle;rounded=0;orthogonalLoop=1;jettySize=auto;html=1;entryX=0.5;entryY=0;entryDx=0;entryDy=0;" edge="1" parent="1" source="Ngm4Al6N2siI-02iGA12-8" target="ktNSDYZ1efkuu9V3wboI-1">
          <mxGeometry relative="1" as="geometry" />
        </mxCell>
        <mxCell id="Ngm4Al6N2siI-02iGA12-8" value="&lt;span&gt;Направление на пересдачу&lt;/span&gt;" style="rounded=1;whiteSpace=wrap;html=1;fillColor=light-dark(#19FF6D,var(--ge-dark-color, #121212));fontFamily=Times New Roman;fontSize=14;" parent="1" vertex="1">
          <mxGeometry x="175" y="-270" width="230" height="100" as="geometry" />
        </mxCell>
        <mxCell id="Ngm4Al6N2siI-02iGA12-10" value="&lt;span&gt;Заведующий кафедры&lt;/span&gt;" style="ellipse;whiteSpace=wrap;html=1;fillColor=light-dark(#F7FF23,var(--ge-dark-color, #121212));fontFamily=Times New Roman;fontSize=14;" parent="1" vertex="1">
          <mxGeometry x="-180" y="-260" width="150" height="80" as="geometry" />
        </mxCell>
        <mxCell id="Ngm4Al6N2siI-02iGA12-12" value="" style="endArrow=classic;html=1;rounded=0;entryX=1;entryY=0.5;entryDx=0;entryDy=0;exitX=0;exitY=0.5;exitDx=0;exitDy=0;fontFamily=Times New Roman;fontSize=14;" parent="1" source="Ngm4Al6N2siI-02iGA12-8" target="Ngm4Al6N2siI-02iGA12-10" edge="1">
          <mxGeometry relative="1" as="geometry">
            <mxPoint x="300" y="310" as="sourcePoint" />
            <mxPoint x="400" y="310" as="targetPoint" />
          </mxGeometry>
        </mxCell>
        <mxCell id="Ngm4Al6N2siI-02iGA12-13" value="&lt;font&gt;выполняет&lt;/font&gt;" style="edgeLabel;resizable=0;html=1;;align=center;verticalAlign=middle;fontFamily=Times New Roman;fontSize=14;" parent="Ngm4Al6N2siI-02iGA12-12" connectable="0" vertex="1">
          <mxGeometry relative="1" as="geometry" />
        </mxCell>
        <mxCell id="Ns2ygsuy4Bm7exYYwAb3-2" style="edgeStyle=orthogonalEdgeStyle;rounded=0;orthogonalLoop=1;jettySize=auto;html=1;entryX=0.5;entryY=0;entryDx=0;entryDy=0;" parent="1" source="Ngm4Al6N2siI-02iGA12-23" target="Ns2ygsuy4Bm7exYYwAb3-1" edge="1">
          <mxGeometry relative="1" as="geometry" />
        </mxCell>
        <mxCell id="Ngm4Al6N2siI-02iGA12-23" value="&lt;font&gt;&lt;span&gt;Ведомость о системе академической задолженности&lt;/span&gt;&lt;/font&gt;" style="rounded=1;whiteSpace=wrap;html=1;fillColor=light-dark(#19FF6D,var(--ge-dark-color, #121212));fontFamily=Times New Roman;fontSize=14;" parent="1" vertex="1">
          <mxGeometry x="175" y="430" width="230" height="100" as="geometry" />
        </mxCell>
        <mxCell id="ldN0KnNNR77N_IaCcScN-81" style="edgeStyle=orthogonalEdgeStyle;rounded=0;orthogonalLoop=1;jettySize=auto;html=1;fontFamily=Times New Roman;fontSize=14;" parent="1" source="Ngm4Al6N2siI-02iGA12-26" target="ldN0KnNNR77N_IaCcScN-80" edge="1">
          <mxGeometry relative="1" as="geometry" />
        </mxCell>
        <mxCell id="ldN0KnNNR77N_IaCcScN-86" style="edgeStyle=orthogonalEdgeStyle;rounded=0;orthogonalLoop=1;jettySize=auto;html=1;entryX=0.5;entryY=0;entryDx=0;entryDy=0;fontFamily=Times New Roman;fontSize=14;" parent="1" source="Ngm4Al6N2siI-02iGA12-26" target="ldN0KnNNR77N_IaCcScN-83" edge="1">
          <mxGeometry relative="1" as="geometry" />
        </mxCell>
        <mxCell id="Ngm4Al6N2siI-02iGA12-26" value="OR" style="ellipse;whiteSpace=wrap;html=1;aspect=fixed;fillColor=light-dark(#D6D6D6,var(--ge-dark-color, #121212));fontFamily=Times New Roman;fontSize=14;" parent="1" vertex="1">
          <mxGeometry x="270" y="720" width="40" height="40" as="geometry" />
        </mxCell>
        <mxCell id="ldN0KnNNR77N_IaCcScN-89" style="edgeStyle=orthogonalEdgeStyle;rounded=0;orthogonalLoop=1;jettySize=auto;html=1;entryX=0.5;entryY=0;entryDx=0;entryDy=0;fontFamily=Times New Roman;fontSize=14;" parent="1" source="Ngm4Al6N2siI-02iGA12-28" target="ldN0KnNNR77N_IaCcScN-102" edge="1">
          <mxGeometry relative="1" as="geometry">
            <mxPoint x="290" y="1780" as="targetPoint" />
          </mxGeometry>
        </mxCell>
        <mxCell id="Ngm4Al6N2siI-02iGA12-28" value="&lt;font&gt;&lt;span&gt;Протокол заседания комиссии&lt;/span&gt;&lt;/font&gt;" style="rounded=1;whiteSpace=wrap;html=1;fillColor=light-dark(#19FF6D,var(--ge-dark-color, #121212));fontFamily=Times New Roman;fontSize=14;" parent="1" vertex="1">
          <mxGeometry x="175" y="1620" width="230" height="100" as="geometry" />
        </mxCell>
        <mxCell id="ldN0KnNNR77N_IaCcScN-65" style="edgeStyle=orthogonalEdgeStyle;rounded=0;orthogonalLoop=1;jettySize=auto;html=1;entryX=0.5;entryY=0;entryDx=0;entryDy=0;fontFamily=Times New Roman;fontSize=14;" parent="1" source="Ngm4Al6N2siI-02iGA12-29" target="ldN0KnNNR77N_IaCcScN-64" edge="1">
          <mxGeometry relative="1" as="geometry" />
        </mxCell>
        <mxCell id="Ngm4Al6N2siI-02iGA12-29" value="&lt;span&gt;Заявление на продление сроков ликвидации задолженности&lt;/span&gt;" style="rounded=1;whiteSpace=wrap;html=1;fillColor=light-dark(#19FF6D,var(--ge-dark-color, #121212));fontFamily=Times New Roman;fontSize=14;" parent="1" vertex="1">
          <mxGeometry x="-145" y="960" width="230" height="100" as="geometry" />
        </mxCell>
        <mxCell id="Ngm4Al6N2siI-02iGA12-36" value="&lt;span&gt;Ректор&lt;/span&gt;" style="ellipse;whiteSpace=wrap;html=1;fillColor=light-dark(#F7FF23,var(--ge-dark-color, #121212));fontFamily=Times New Roman;fontSize=14;" parent="1" vertex="1">
          <mxGeometry x="-560" y="1150" width="150" height="80" as="geometry" />
        </mxCell>
        <mxCell id="Ngm4Al6N2siI-02iGA12-39" value="" style="endArrow=classic;html=1;rounded=0;exitX=0;exitY=0.5;exitDx=0;exitDy=0;entryX=0.793;entryY=0.093;entryDx=0;entryDy=0;entryPerimeter=0;fontFamily=Times New Roman;fontSize=14;" parent="1" source="Ngm4Al6N2siI-02iGA12-29" target="Ngm4Al6N2siI-02iGA12-36" edge="1">
          <mxGeometry relative="1" as="geometry">
            <mxPoint x="130" y="880" as="sourcePoint" />
            <mxPoint x="230" y="880" as="targetPoint" />
          </mxGeometry>
        </mxCell>
        <mxCell id="Ngm4Al6N2siI-02iGA12-40" value="&lt;font&gt;выполняет&lt;/font&gt;" style="edgeLabel;resizable=0;html=1;;align=center;verticalAlign=middle;fontFamily=Times New Roman;fontSize=14;" parent="Ngm4Al6N2siI-02iGA12-39" connectable="0" vertex="1">
          <mxGeometry relative="1" as="geometry" />
        </mxCell>
        <mxCell id="Ngm4Al6N2siI-02iGA12-41" value="&lt;span&gt;Декан&lt;/span&gt;" style="ellipse;whiteSpace=wrap;html=1;fillColor=light-dark(#F7FF23,var(--ge-dark-color, #121212));fontFamily=Times New Roman;fontSize=14;" parent="1" vertex="1">
          <mxGeometry x="875" y="1630" width="150" height="80" as="geometry" />
        </mxCell>
        <mxCell id="Ngm4Al6N2siI-02iGA12-42" value="&lt;span&gt;Преподаватель&lt;/span&gt;" style="ellipse;whiteSpace=wrap;html=1;fillColor=light-dark(#F7FF23,var(--ge-dark-color, #121212));fontFamily=Times New Roman;fontSize=14;" parent="1" vertex="1">
          <mxGeometry x="-195" y="440" width="150" height="80" as="geometry" />
        </mxCell>
        <mxCell id="Ngm4Al6N2siI-02iGA12-43" value="" style="endArrow=classic;html=1;rounded=0;exitX=0;exitY=0.5;exitDx=0;exitDy=0;entryX=1;entryY=0.5;entryDx=0;entryDy=0;fontFamily=Times New Roman;fontSize=14;" parent="1" source="Ngm4Al6N2siI-02iGA12-23" target="Ngm4Al6N2siI-02iGA12-42" edge="1">
          <mxGeometry relative="1" as="geometry">
            <mxPoint x="310" y="510" as="sourcePoint" />
            <mxPoint x="410" y="510" as="targetPoint" />
          </mxGeometry>
        </mxCell>
        <mxCell id="Ngm4Al6N2siI-02iGA12-44" value="&lt;font&gt;выполняет&lt;/font&gt;" style="edgeLabel;resizable=0;html=1;;align=center;verticalAlign=middle;fontFamily=Times New Roman;fontSize=14;" parent="Ngm4Al6N2siI-02iGA12-43" connectable="0" vertex="1">
          <mxGeometry relative="1" as="geometry" />
        </mxCell>
        <mxCell id="ldN0KnNNR77N_IaCcScN-78" style="edgeStyle=orthogonalEdgeStyle;rounded=0;orthogonalLoop=1;jettySize=auto;html=1;entryX=0;entryY=0.5;entryDx=0;entryDy=0;fontFamily=Times New Roman;fontSize=14;" parent="1" source="Ngm4Al6N2siI-02iGA12-47" target="ldN0KnNNR77N_IaCcScN-77" edge="1">
          <mxGeometry relative="1" as="geometry">
            <Array as="points">
              <mxPoint x="-30" y="1460" />
            </Array>
          </mxGeometry>
        </mxCell>
        <mxCell id="Ngm4Al6N2siI-02iGA12-47" value="&lt;font&gt;&lt;span&gt;Ведомость о системе академической задолженности для студентов с ИОМ&lt;/span&gt;&lt;/font&gt;" style="rounded=1;whiteSpace=wrap;html=1;fillColor=light-dark(#19FF6D,var(--ge-dark-color, #121212));fontFamily=Times New Roman;fontSize=14;" parent="1" vertex="1">
          <mxGeometry x="-145" y="1270" width="230" height="100" as="geometry" />
        </mxCell>
        <mxCell id="Ngm4Al6N2siI-02iGA12-61" value="" style="endArrow=classic;html=1;rounded=0;exitX=0;exitY=0.5;exitDx=0;exitDy=0;entryX=0.789;entryY=0.905;entryDx=0;entryDy=0;entryPerimeter=0;fontFamily=Times New Roman;fontSize=14;" parent="1" source="Ngm4Al6N2siI-02iGA12-47" target="Ngm4Al6N2siI-02iGA12-36" edge="1">
          <mxGeometry relative="1" as="geometry">
            <mxPoint x="80" y="1040" as="sourcePoint" />
            <mxPoint x="180" y="1040" as="targetPoint" />
          </mxGeometry>
        </mxCell>
        <mxCell id="Ngm4Al6N2siI-02iGA12-62" value="&lt;font&gt;выполняет&lt;/font&gt;" style="edgeLabel;resizable=0;html=1;;align=center;verticalAlign=middle;fontFamily=Times New Roman;fontSize=14;" parent="Ngm4Al6N2siI-02iGA12-61" connectable="0" vertex="1">
          <mxGeometry relative="1" as="geometry" />
        </mxCell>
        <mxCell id="ldN0KnNNR77N_IaCcScN-47" value="" style="endArrow=classic;html=1;rounded=0;entryX=0;entryY=0.5;entryDx=0;entryDy=0;fontFamily=Times New Roman;fontSize=14;" parent="1" source="Ngm4Al6N2siI-02iGA12-28" target="Ngm4Al6N2siI-02iGA12-41" edge="1">
          <mxGeometry relative="1" as="geometry">
            <mxPoint x="410" y="1670" as="sourcePoint" />
            <mxPoint x="860" y="1790" as="targetPoint" />
            <Array as="points" />
          </mxGeometry>
        </mxCell>
        <mxCell id="ldN0KnNNR77N_IaCcScN-48" value="&lt;font&gt;выполняет&lt;/font&gt;" style="edgeLabel;resizable=0;html=1;;align=center;verticalAlign=middle;fontFamily=Times New Roman;fontSize=14;" parent="ldN0KnNNR77N_IaCcScN-47" connectable="0" vertex="1">
          <mxGeometry relative="1" as="geometry" />
        </mxCell>
        <mxCell id="KaI1DBHOkOv4_R5izNHV-2" style="edgeStyle=orthogonalEdgeStyle;rounded=0;orthogonalLoop=1;jettySize=auto;html=1;entryX=0;entryY=0.5;entryDx=0;entryDy=0;fontFamily=Times New Roman;fontSize=14;" parent="1" source="ldN0KnNNR77N_IaCcScN-58" target="ldN0KnNNR77N_IaCcScN-83" edge="1">
          <mxGeometry relative="1" as="geometry">
            <Array as="points">
              <mxPoint x="-294" y="820" />
            </Array>
          </mxGeometry>
        </mxCell>
        <mxCell id="ldN0KnNNR77N_IaCcScN-58" value="" style="verticalLabelPosition=bottom;verticalAlign=top;html=1;shape=card;whiteSpace=wrap;size=20;arcSize=12;fillColor=light-dark(#CBE7EB,var(--ge-dark-color, #121212));fontFamily=Times New Roman;fontSize=14;" parent="1" vertex="1">
          <mxGeometry x="-357.25" y="930" width="127" height="100" as="geometry" />
        </mxCell>
        <mxCell id="ldN0KnNNR77N_IaCcScN-61" value="&lt;font&gt;Неявка/Просрочена/Неудачная пересдача&lt;/font&gt;" style="text;html=1;align=center;verticalAlign=middle;whiteSpace=wrap;rounded=0;fontFamily=Times New Roman;fontSize=14;" parent="1" vertex="1">
          <mxGeometry x="-350.62" y="965" width="113.75" height="30" as="geometry" />
        </mxCell>
        <mxCell id="ldN0KnNNR77N_IaCcScN-66" style="edgeStyle=orthogonalEdgeStyle;rounded=0;orthogonalLoop=1;jettySize=auto;html=1;fontFamily=Times New Roman;fontSize=14;" parent="1" source="ldN0KnNNR77N_IaCcScN-64" target="Ngm4Al6N2siI-02iGA12-47" edge="1">
          <mxGeometry relative="1" as="geometry" />
        </mxCell>
        <mxCell id="ldN0KnNNR77N_IaCcScN-64" value="&lt;font&gt;&lt;span&gt;Создается индивидуальный план ликвидации задолженностей&lt;/span&gt;&lt;/font&gt;" style="shape=hexagon;perimeter=hexagonPerimeter2;whiteSpace=wrap;html=1;fixedSize=1;fillColor=light-dark(#D1A0CF,var(--ge-dark-color, #121212));fontFamily=Times New Roman;fontSize=14;" parent="1" vertex="1">
          <mxGeometry x="-195" y="1125" width="330" height="80" as="geometry" />
        </mxCell>
        <mxCell id="KaI1DBHOkOv4_R5izNHV-3" style="edgeStyle=orthogonalEdgeStyle;rounded=0;orthogonalLoop=1;jettySize=auto;html=1;entryX=1;entryY=0.5;entryDx=0;entryDy=0;fontFamily=Times New Roman;fontSize=14;" parent="1" source="ldN0KnNNR77N_IaCcScN-74" target="ldN0KnNNR77N_IaCcScN-80" edge="1">
          <mxGeometry relative="1" as="geometry" />
        </mxCell>
        <mxCell id="ldN0KnNNR77N_IaCcScN-74" value="" style="verticalLabelPosition=bottom;verticalAlign=top;html=1;shape=card;whiteSpace=wrap;size=20;arcSize=12;fillColor=light-dark(#CBE7EB,var(--ge-dark-color, #121212));fontFamily=Times New Roman;fontSize=14;" parent="1" vertex="1">
          <mxGeometry x="770" y="930" width="127" height="100" as="geometry" />
        </mxCell>
        <mxCell id="ldN0KnNNR77N_IaCcScN-76" value="&lt;span&gt;Успешная пересдача&lt;/span&gt;" style="text;html=1;align=center;verticalAlign=middle;whiteSpace=wrap;rounded=0;fontFamily=Times New Roman;fontSize=14;" parent="1" vertex="1">
          <mxGeometry x="803.5" y="960" width="60" height="30" as="geometry" />
        </mxCell>
        <mxCell id="ldN0KnNNR77N_IaCcScN-108" style="edgeStyle=orthogonalEdgeStyle;rounded=0;orthogonalLoop=1;jettySize=auto;html=1;entryX=0.5;entryY=0;entryDx=0;entryDy=0;fontFamily=Times New Roman;fontSize=14;" parent="1" source="ldN0KnNNR77N_IaCcScN-77" target="Ngm4Al6N2siI-02iGA12-28" edge="1">
          <mxGeometry relative="1" as="geometry" />
        </mxCell>
        <mxCell id="ldN0KnNNR77N_IaCcScN-77" value="&lt;span&gt;Фиксируются рекомендации по студентам&lt;/span&gt;" style="shape=hexagon;perimeter=hexagonPerimeter2;whiteSpace=wrap;html=1;fixedSize=1;fillColor=light-dark(#D1A0CF,var(--ge-dark-color, #121212));fontFamily=Times New Roman;fontSize=14;" parent="1" vertex="1">
          <mxGeometry x="125" y="1420" width="330" height="80" as="geometry" />
        </mxCell>
        <mxCell id="KaI1DBHOkOv4_R5izNHV-7" style="edgeStyle=orthogonalEdgeStyle;rounded=0;orthogonalLoop=1;jettySize=auto;html=1;entryX=1;entryY=0.5;entryDx=0;entryDy=0;fontFamily=Times New Roman;fontSize=14;" parent="1" source="ldN0KnNNR77N_IaCcScN-80" target="ldN0KnNNR77N_IaCcScN-77" edge="1">
          <mxGeometry relative="1" as="geometry">
            <Array as="points">
              <mxPoint x="610" y="1460" />
            </Array>
          </mxGeometry>
        </mxCell>
        <mxCell id="ldN0KnNNR77N_IaCcScN-80" value="&lt;font&gt;&lt;span&gt;Получена удовлетворительная оценка&lt;/span&gt;&lt;/font&gt;" style="shape=hexagon;perimeter=hexagonPerimeter2;whiteSpace=wrap;html=1;fixedSize=1;fillColor=light-dark(#D1A0CF,var(--ge-dark-color, #121212));fontFamily=Times New Roman;fontSize=14;" parent="1" vertex="1">
          <mxGeometry x="440" y="780" width="330" height="80" as="geometry" />
        </mxCell>
        <mxCell id="ldN0KnNNR77N_IaCcScN-87" style="edgeStyle=orthogonalEdgeStyle;rounded=0;orthogonalLoop=1;jettySize=auto;html=1;entryX=0.5;entryY=0;entryDx=0;entryDy=0;fontFamily=Times New Roman;fontSize=14;" parent="1" source="ldN0KnNNR77N_IaCcScN-83" target="Ngm4Al6N2siI-02iGA12-29" edge="1">
          <mxGeometry relative="1" as="geometry" />
        </mxCell>
        <mxCell id="ldN0KnNNR77N_IaCcScN-83" value="&lt;font&gt;&lt;span&gt;Получена неудовлетворительная оценка&lt;/span&gt;&lt;/font&gt;" style="shape=hexagon;perimeter=hexagonPerimeter2;whiteSpace=wrap;html=1;fixedSize=1;fillColor=light-dark(#D1A0CF,var(--ge-dark-color, #121212));fontFamily=Times New Roman;fontSize=14;" parent="1" vertex="1">
          <mxGeometry x="-195" y="780" width="330" height="80" as="geometry" />
        </mxCell>
        <mxCell id="ldN0KnNNR77N_IaCcScN-93" style="edgeStyle=orthogonalEdgeStyle;rounded=0;orthogonalLoop=1;jettySize=auto;html=1;entryX=0.5;entryY=0;entryDx=0;entryDy=0;fontFamily=Times New Roman;fontSize=14;" parent="1" source="ldN0KnNNR77N_IaCcScN-91" target="Ngm4Al6N2siI-02iGA12-23" edge="1">
          <mxGeometry relative="1" as="geometry" />
        </mxCell>
        <mxCell id="ldN0KnNNR77N_IaCcScN-91" value="&lt;font&gt;&lt;span&gt;Ликвидация академических задолженностей&lt;/span&gt;&lt;/font&gt;" style="shape=hexagon;perimeter=hexagonPerimeter2;whiteSpace=wrap;html=1;fixedSize=1;fillColor=light-dark(#D1A0CF,var(--ge-dark-color, #121212));fontFamily=Times New Roman;fontSize=14;" parent="1" vertex="1">
          <mxGeometry x="125" y="260" width="330" height="80" as="geometry" />
        </mxCell>
        <mxCell id="ldN0KnNNR77N_IaCcScN-102" value="&lt;font&gt;&lt;span&gt;Завершение текущей сессии&lt;/span&gt;&lt;/font&gt;" style="shape=hexagon;perimeter=hexagonPerimeter2;whiteSpace=wrap;html=1;fixedSize=1;fillColor=light-dark(#D1A0CF,var(--ge-dark-color, #121212));fontFamily=Times New Roman;fontSize=14;" parent="1" vertex="1">
          <mxGeometry x="125" y="1980" width="330" height="80" as="geometry" />
        </mxCell>
        <mxCell id="Ns2ygsuy4Bm7exYYwAb3-11" style="edgeStyle=orthogonalEdgeStyle;rounded=0;orthogonalLoop=1;jettySize=auto;html=1;entryX=0.5;entryY=0;entryDx=0;entryDy=0;" parent="1" source="ldN0KnNNR77N_IaCcScN-109" target="Ns2ygsuy4Bm7exYYwAb3-9" edge="1">
          <mxGeometry relative="1" as="geometry" />
        </mxCell>
        <mxCell id="ldN0KnNNR77N_IaCcScN-109" value="&lt;font&gt;&lt;span&gt;Необходимо ликвидировать академическую задолженность&lt;/span&gt;&lt;/font&gt;" style="shape=hexagon;perimeter=hexagonPerimeter2;whiteSpace=wrap;html=1;fixedSize=1;fillColor=light-dark(#D1A0CF,var(--ge-dark-color, #121212));fontFamily=Times New Roman;fontSize=14;" parent="1" vertex="1">
          <mxGeometry x="125" y="-760" width="330" height="80" as="geometry" />
        </mxCell>
        <mxCell id="ldN0KnNNR77N_IaCcScN-117" style="edgeStyle=orthogonalEdgeStyle;rounded=0;orthogonalLoop=1;jettySize=auto;html=1;entryX=1;entryY=0.5;entryDx=0;entryDy=0;fontFamily=Times New Roman;fontSize=14;" parent="1" source="ldN0KnNNR77N_IaCcScN-113" target="ldN0KnNNR77N_IaCcScN-102" edge="1">
          <mxGeometry relative="1" as="geometry">
            <Array as="points">
              <mxPoint x="1160" y="-720" />
              <mxPoint x="1160" y="2020" />
            </Array>
          </mxGeometry>
        </mxCell>
        <mxCell id="ldN0KnNNR77N_IaCcScN-113" value="&lt;font&gt;&lt;span&gt;Студент не имеет академическую задолженность&lt;/span&gt;&lt;/font&gt;" style="shape=hexagon;perimeter=hexagonPerimeter2;whiteSpace=wrap;html=1;fixedSize=1;fillColor=light-dark(#D1A0CF,var(--ge-dark-color, #121212));fontFamily=Times New Roman;fontSize=14;" parent="1" vertex="1">
          <mxGeometry x="770" y="-760" width="330" height="80" as="geometry" />
        </mxCell>
        <mxCell id="CTZOwyTcPq88GxWdwAFM-2" style="edgeStyle=orthogonalEdgeStyle;rounded=0;orthogonalLoop=1;jettySize=auto;html=1;entryX=0.5;entryY=0;entryDx=0;entryDy=0;" parent="1" source="ldN0KnNNR77N_IaCcScN-114" target="CTZOwyTcPq88GxWdwAFM-1" edge="1">
          <mxGeometry relative="1" as="geometry" />
        </mxCell>
        <mxCell id="ldN0KnNNR77N_IaCcScN-114" value="&lt;font&gt;&lt;span&gt;Наличие академических задолженностей&lt;/span&gt;&lt;/font&gt;" style="shape=hexagon;perimeter=hexagonPerimeter2;whiteSpace=wrap;html=1;fixedSize=1;fillColor=light-dark(#D1A0CF,var(--ge-dark-color, #121212));fontFamily=Times New Roman;fontSize=14;" parent="1" vertex="1">
          <mxGeometry x="455" y="-990" width="330" height="80" as="geometry" />
        </mxCell>
        <mxCell id="uVZ458_nJyst_rIXu_14-2" style="edgeStyle=orthogonalEdgeStyle;rounded=0;orthogonalLoop=1;jettySize=auto;html=1;fontFamily=Times New Roman;fontSize=14;" parent="1" source="uVZ458_nJyst_rIXu_14-1" target="ldN0KnNNR77N_IaCcScN-77" edge="1">
          <mxGeometry relative="1" as="geometry" />
        </mxCell>
        <mxCell id="uVZ458_nJyst_rIXu_14-1" value="" style="verticalLabelPosition=bottom;verticalAlign=top;html=1;shape=card;whiteSpace=wrap;size=20;arcSize=12;fillColor=light-dark(#CBE7EB,var(--ge-dark-color, #121212));fontFamily=Times New Roman;fontSize=14;" parent="1" vertex="1">
          <mxGeometry x="226.5" y="1230" width="127" height="100" as="geometry" />
        </mxCell>
        <mxCell id="uVZ458_nJyst_rIXu_14-3" value="Составление рекомендаций по студентам" style="text;html=1;align=center;verticalAlign=middle;whiteSpace=wrap;rounded=0;fontFamily=Times New Roman;fontSize=14;" parent="1" vertex="1">
          <mxGeometry x="260" y="1260" width="60" height="30" as="geometry" />
        </mxCell>
        <mxCell id="3zQtas0TBDlNP7FKO63y-1" value="&lt;span&gt;Студент&lt;/span&gt;" style="ellipse;whiteSpace=wrap;html=1;fillColor=light-dark(#F7FF23,var(--ge-dark-color, #121212));fontFamily=Times New Roman;fontSize=14;" parent="1" vertex="1">
          <mxGeometry x="-170" y="-600" width="150" height="80" as="geometry" />
        </mxCell>
        <mxCell id="3zQtas0TBDlNP7FKO63y-2" value="" style="endArrow=classic;html=1;rounded=0;entryX=1;entryY=0.5;entryDx=0;entryDy=0;exitX=0;exitY=0.5;exitDx=0;exitDy=0;fontFamily=Times New Roman;fontSize=14;" parent="1" source="Ns2ygsuy4Bm7exYYwAb3-9" target="3zQtas0TBDlNP7FKO63y-1" edge="1">
          <mxGeometry relative="1" as="geometry">
            <mxPoint x="-150" y="-20" as="sourcePoint" />
            <mxPoint x="-50" y="-20" as="targetPoint" />
          </mxGeometry>
        </mxCell>
        <mxCell id="3zQtas0TBDlNP7FKO63y-3" value="выполняет" style="edgeLabel;resizable=0;html=1;;align=center;verticalAlign=middle;fontFamily=Times New Roman;fontSize=14;" parent="3zQtas0TBDlNP7FKO63y-2" connectable="0" vertex="1">
          <mxGeometry relative="1" as="geometry" />
        </mxCell>
        <mxCell id="Ns2ygsuy4Bm7exYYwAb3-3" style="edgeStyle=orthogonalEdgeStyle;rounded=0;orthogonalLoop=1;jettySize=auto;html=1;entryX=0.5;entryY=0;entryDx=0;entryDy=0;" parent="1" source="Ns2ygsuy4Bm7exYYwAb3-1" target="Ngm4Al6N2siI-02iGA12-26" edge="1">
          <mxGeometry relative="1" as="geometry" />
        </mxCell>
        <mxCell id="Ns2ygsuy4Bm7exYYwAb3-1" value="&lt;span&gt;Фиксируется результаты пересдачи&lt;/span&gt;" style="shape=hexagon;perimeter=hexagonPerimeter2;whiteSpace=wrap;html=1;fixedSize=1;fillColor=light-dark(#D1A0CF,var(--ge-dark-color, #121212));fontFamily=Times New Roman;fontSize=14;" parent="1" vertex="1">
          <mxGeometry x="125" y="585" width="330" height="80" as="geometry" />
        </mxCell>
        <mxCell id="Ns2ygsuy4Bm7exYYwAb3-8" style="edgeStyle=orthogonalEdgeStyle;rounded=0;orthogonalLoop=1;jettySize=auto;html=1;entryX=0.5;entryY=0;entryDx=0;entryDy=0;" parent="1" source="Ns2ygsuy4Bm7exYYwAb3-7" target="Ngm4Al6N2siI-02iGA12-8" edge="1">
          <mxGeometry relative="1" as="geometry" />
        </mxCell>
        <mxCell id="Ns2ygsuy4Bm7exYYwAb3-7" value="Подготовка к пересдаче" style="shape=hexagon;perimeter=hexagonPerimeter2;whiteSpace=wrap;html=1;fixedSize=1;fillColor=light-dark(#D1A0CF,var(--ge-dark-color, #121212));fontFamily=Times New Roman;fontSize=14;" parent="1" vertex="1">
          <mxGeometry x="125" y="-440" width="330" height="80" as="geometry" />
        </mxCell>
        <mxCell id="Ns2ygsuy4Bm7exYYwAb3-10" style="edgeStyle=orthogonalEdgeStyle;rounded=0;orthogonalLoop=1;jettySize=auto;html=1;" parent="1" source="Ns2ygsuy4Bm7exYYwAb3-9" target="Ns2ygsuy4Bm7exYYwAb3-7" edge="1">
          <mxGeometry relative="1" as="geometry" />
        </mxCell>
        <mxCell id="Ns2ygsuy4Bm7exYYwAb3-9" value="Идентификация академических задолженностей" style="rounded=1;whiteSpace=wrap;html=1;fillColor=light-dark(#19FF6D,var(--ge-dark-color, #121212));fontFamily=Times New Roman;fontSize=14;" parent="1" vertex="1">
          <mxGeometry x="175" y="-610" width="230" height="100" as="geometry" />
        </mxCell>
        <mxCell id="CTZOwyTcPq88GxWdwAFM-4" style="edgeStyle=orthogonalEdgeStyle;rounded=0;orthogonalLoop=1;jettySize=auto;html=1;entryX=0.5;entryY=0;entryDx=0;entryDy=0;" parent="1" source="CTZOwyTcPq88GxWdwAFM-1" target="ldN0KnNNR77N_IaCcScN-109" edge="1">
          <mxGeometry relative="1" as="geometry" />
        </mxCell>
        <mxCell id="CTZOwyTcPq88GxWdwAFM-1" value="OR" style="ellipse;whiteSpace=wrap;html=1;aspect=fixed;fillColor=light-dark(#D6D6D6,var(--ge-dark-color, #121212));fontFamily=Times New Roman;fontSize=14;" parent="1" vertex="1">
          <mxGeometry x="600" y="-810" width="40" height="40" as="geometry" />
        </mxCell>
        <mxCell id="CTZOwyTcPq88GxWdwAFM-3" style="edgeStyle=orthogonalEdgeStyle;rounded=0;orthogonalLoop=1;jettySize=auto;html=1;entryX=0.526;entryY=-0.001;entryDx=0;entryDy=0;entryPerimeter=0;" parent="1" source="CTZOwyTcPq88GxWdwAFM-1" target="ldN0KnNNR77N_IaCcScN-113" edge="1">
          <mxGeometry relative="1" as="geometry" />
        </mxCell>
        <mxCell id="ktNSDYZ1efkuu9V3wboI-4" style="edgeStyle=orthogonalEdgeStyle;rounded=0;orthogonalLoop=1;jettySize=auto;html=1;entryX=0.5;entryY=0;entryDx=0;entryDy=0;" edge="1" parent="1" source="ktNSDYZ1efkuu9V3wboI-1" target="ktNSDYZ1efkuu9V3wboI-2">
          <mxGeometry relative="1" as="geometry" />
        </mxCell>
        <mxCell id="ktNSDYZ1efkuu9V3wboI-1" value="Формирование комиссии" style="shape=hexagon;perimeter=hexagonPerimeter2;whiteSpace=wrap;html=1;fixedSize=1;fillColor=light-dark(#D1A0CF,var(--ge-dark-color, #121212));fontFamily=Times New Roman;fontSize=14;" vertex="1" parent="1">
          <mxGeometry x="125" y="-80" width="330" height="80" as="geometry" />
        </mxCell>
        <mxCell id="ktNSDYZ1efkuu9V3wboI-8" style="edgeStyle=orthogonalEdgeStyle;rounded=0;orthogonalLoop=1;jettySize=auto;html=1;" edge="1" parent="1" source="ktNSDYZ1efkuu9V3wboI-2" target="ldN0KnNNR77N_IaCcScN-91">
          <mxGeometry relative="1" as="geometry" />
        </mxCell>
        <mxCell id="ktNSDYZ1efkuu9V3wboI-2" value="Приказ о назначении комиссии по ликвидации задолженностей" style="rounded=1;whiteSpace=wrap;html=1;fillColor=light-dark(#19FF6D,var(--ge-dark-color, #121212));fontFamily=Times New Roman;fontSize=14;" vertex="1" parent="1">
          <mxGeometry x="175" y="90" width="230" height="100" as="geometry" />
        </mxCell>
        <mxCell id="ktNSDYZ1efkuu9V3wboI-6" value="" style="endArrow=classic;html=1;rounded=0;exitX=0;exitY=0.5;exitDx=0;exitDy=0;entryX=0.5;entryY=0;entryDx=0;entryDy=0;" edge="1" parent="1" source="ktNSDYZ1efkuu9V3wboI-2" target="Ngm4Al6N2siI-02iGA12-36">
          <mxGeometry relative="1" as="geometry">
            <mxPoint x="-90" y="640" as="sourcePoint" />
            <mxPoint x="10" y="640" as="targetPoint" />
            <Array as="points">
              <mxPoint x="-480" y="140" />
            </Array>
          </mxGeometry>
        </mxCell>
        <mxCell id="ktNSDYZ1efkuu9V3wboI-7" value="&lt;span style=&quot;font-family: &amp;quot;Times New Roman&amp;quot;; font-size: 14px;&quot;&gt;выполняет&lt;/span&gt;" style="edgeLabel;resizable=0;html=1;;align=center;verticalAlign=middle;" connectable="0" vertex="1" parent="ktNSDYZ1efkuu9V3wboI-6">
          <mxGeometry relative="1" as="geometry" />
        </mxCell>
      </root>
    </mxGraphModel>
  </diagram>
</mxfile>
